<svg xmlns="http://www.w3.org/2000/svg" xmlns:xlink="http://www.w3.org/1999/xlink" width="500" zoomAndPan="magnify" viewBox="0 0 375 149.999998" height="200" preserveAspectRatio="xMidYMid meet" version="1.0"><defs><g/><clipPath id="9affc48da8"><path d="M 61.578125 72.539062 L 113.328125 72.539062 L 113.328125 95.789062 L 61.578125 95.789062 Z M 61.578125 72.539062 " clip-rule="nonzero"/></clipPath></defs><g clip-path="url(#9affc48da8)"><path fill="#ff7a57" d="M 113.457031 84 C 113.457031 90.320312 108.332031 95.441406 102.011719 95.441406 L 73.023438 95.441406 C 66.703125 95.441406 61.578125 90.320312 61.578125 84 C 61.578125 77.679688 66.703125 72.554688 73.023438 72.554688 L 102.011719 72.554688 C 108.332031 72.554688 113.457031 77.679688 113.457031 84 Z M 113.457031 84 " fill-opacity="1" fill-rule="nonzero"/></g><path fill="#000000" d="M 110.914062 84 C 110.914062 89 106.859375 93.050781 101.859375 93.050781 C 96.859375 93.050781 92.808594 89 92.808594 84 C 92.808594 79 96.859375 74.945312 101.859375 74.945312 C 106.859375 74.945312 110.914062 79 110.914062 84 Z M 110.914062 84 " fill-opacity="1" fill-rule="nonzero"/><g fill="#000000" fill-opacity="1"><g transform="translate(115.840594, 93.220888)"><g><path d="M 14.0625 -12.078125 L 14.0625 -19.375 L 18.90625 -19.375 L 18.90625 0 L 14.0625 0 L 14.0625 -7.703125 L 7.109375 -7.703125 L 7.109375 0 L 2.265625 0 L 2.265625 -19.375 L 7.109375 -19.375 L 7.109375 -12.078125 Z M 14.0625 -12.078125 "/></g></g></g><g fill="#000000" fill-opacity="1"><g transform="translate(134.855663, 93.220888)"><g><path d="M 20.015625 0 L 15 0 L 13.671875 -3.796875 L 6.421875 -3.796875 L 5.125 0 L 0.1875 0 L 7.5625 -19.375 L 12.625 -19.375 Z M 7.703125 -7.828125 L 12.453125 -7.828125 L 10.078125 -14.5625 Z M 7.703125 -7.828125 "/></g></g></g><g fill="#000000" fill-opacity="1"><g transform="translate(152.901943, 93.220888)"><g><path d="M 8.75 0.359375 C 6.4375 0.359375 4.578125 -0.222656 3.171875 -1.390625 C 1.773438 -2.566406 1.0625 -4.21875 1.03125 -6.34375 L 5.8125 -6.34375 C 5.851562 -5.457031 6.117188 -4.769531 6.609375 -4.28125 C 7.097656 -3.789062 7.800781 -3.546875 8.71875 -3.546875 C 9.582031 -3.546875 10.238281 -3.710938 10.6875 -4.046875 C 11.132812 -4.378906 11.359375 -4.832031 11.359375 -5.40625 C 11.359375 -6.03125 11.070312 -6.507812 10.5 -6.84375 C 9.925781 -7.1875 9.019531 -7.554688 7.78125 -7.953125 C 6.488281 -8.359375 5.421875 -8.765625 4.578125 -9.171875 C 3.742188 -9.578125 3.023438 -10.179688 2.421875 -10.984375 C 1.816406 -11.796875 1.515625 -12.867188 1.515625 -14.203125 C 1.515625 -15.273438 1.816406 -16.226562 2.421875 -17.0625 C 3.023438 -17.90625 3.859375 -18.5625 4.921875 -19.03125 C 5.992188 -19.5 7.222656 -19.734375 8.609375 -19.734375 C 9.867188 -19.734375 11.039062 -19.503906 12.125 -19.046875 C 13.21875 -18.585938 14.101562 -17.878906 14.78125 -16.921875 C 15.46875 -15.972656 15.820312 -14.804688 15.84375 -13.421875 L 11.125 -13.421875 C 11.113281 -14.109375 10.898438 -14.679688 10.484375 -15.140625 C 10.066406 -15.609375 9.441406 -15.84375 8.609375 -15.84375 C 7.890625 -15.84375 7.332031 -15.679688 6.9375 -15.359375 C 6.539062 -15.046875 6.34375 -14.625 6.34375 -14.09375 C 6.34375 -13.46875 6.628906 -12.988281 7.203125 -12.65625 C 7.773438 -12.320312 8.671875 -11.960938 9.890625 -11.578125 C 11.179688 -11.179688 12.242188 -10.78125 13.078125 -10.375 C 13.921875 -9.976562 14.644531 -9.367188 15.25 -8.546875 C 15.863281 -7.722656 16.171875 -6.632812 16.171875 -5.28125 C 16.171875 -4.25 15.878906 -3.300781 15.296875 -2.4375 C 14.710938 -1.582031 13.863281 -0.898438 12.75 -0.390625 C 11.632812 0.109375 10.300781 0.359375 8.75 0.359375 Z M 8.75 0.359375 "/></g></g></g><g fill="#000000" fill-opacity="1"><g transform="translate(167.958822, 93.220888)"><g><path d="M 20.015625 0 L 15 0 L 13.671875 -3.796875 L 6.421875 -3.796875 L 5.125 0 L 0.1875 0 L 7.5625 -19.375 L 12.625 -19.375 Z M 7.703125 -7.828125 L 12.453125 -7.828125 L 10.078125 -14.5625 Z M 7.703125 -7.828125 "/></g></g></g><g fill="#000000" fill-opacity="1"><g transform="translate(186.005101, 93.220888)"><g><path d="M 15.890625 -7.703125 L 15.890625 -19.375 L 20.546875 -19.375 L 20.546875 0 L 17.171875 0 L 6.921875 -11.625 L 6.921875 0 L 2.265625 0 L 2.265625 -19.375 L 5.625 -19.375 Z M 15.890625 -7.703125 "/></g></g></g><g fill="#000000" fill-opacity="1"><g transform="translate(206.653274, 93.220888)"><g/></g></g><g fill="#000000" fill-opacity="1"><g transform="translate(212.935697, 93.220888)"><g><path d="M 11.4375 0.359375 C 9.59375 0.359375 7.878906 -0.0507812 6.296875 -0.875 C 4.722656 -1.707031 3.460938 -2.890625 2.515625 -4.421875 C 1.578125 -5.960938 1.109375 -7.71875 1.109375 -9.6875 C 1.109375 -11.664062 1.578125 -13.421875 2.515625 -14.953125 C 3.460938 -16.484375 4.722656 -17.660156 6.296875 -18.484375 C 7.878906 -19.316406 9.59375 -19.734375 11.4375 -19.734375 C 13.019531 -19.734375 14.492188 -19.425781 15.859375 -18.8125 C 17.222656 -18.207031 18.390625 -17.328125 19.359375 -16.171875 C 20.335938 -15.023438 21.019531 -13.675781 21.40625 -12.125 L 16.359375 -12.125 C 15.953125 -13.082031 15.316406 -13.851562 14.453125 -14.4375 C 13.597656 -15.019531 12.601562 -15.3125 11.46875 -15.3125 C 10.445312 -15.3125 9.519531 -15.066406 8.6875 -14.578125 C 7.863281 -14.085938 7.210938 -13.414062 6.734375 -12.5625 C 6.265625 -11.71875 6.03125 -10.757812 6.03125 -9.6875 C 6.03125 -8.613281 6.265625 -7.648438 6.734375 -6.796875 C 7.210938 -5.953125 7.863281 -5.285156 8.6875 -4.796875 C 9.519531 -4.304688 10.445312 -4.0625 11.46875 -4.0625 C 12.644531 -4.0625 13.65625 -4.351562 14.5 -4.9375 C 15.351562 -5.519531 15.984375 -6.300781 16.390625 -7.28125 L 21.40625 -7.28125 C 21.019531 -5.707031 20.34375 -4.34375 19.375 -3.1875 C 18.414062 -2.039062 17.253906 -1.160156 15.890625 -0.546875 C 14.523438 0.0546875 13.039062 0.359375 11.4375 0.359375 Z M 11.4375 0.359375 "/></g></g></g><g fill="#000000" fill-opacity="1"><g transform="translate(233.140995, 93.220888)"><g><path d="M 20.015625 0 L 15 0 L 13.671875 -3.796875 L 6.421875 -3.796875 L 5.125 0 L 0.1875 0 L 7.5625 -19.375 L 12.625 -19.375 Z M 7.703125 -7.828125 L 12.453125 -7.828125 L 10.078125 -14.5625 Z M 7.703125 -7.828125 "/></g></g></g><g fill="#000000" fill-opacity="1"><g transform="translate(251.187274, 93.220888)"><g><path d="M 14.0625 -12.078125 L 14.0625 -19.375 L 18.90625 -19.375 L 18.90625 0 L 14.0625 0 L 14.0625 -7.703125 L 7.109375 -7.703125 L 7.109375 0 L 2.265625 0 L 2.265625 -19.375 L 7.109375 -19.375 L 7.109375 -12.078125 Z M 14.0625 -12.078125 "/></g></g></g><g fill="#000000" fill-opacity="1"><g transform="translate(270.202341, 93.220888)"><g><path d="M 20.015625 0 L 15 0 L 13.671875 -3.796875 L 6.421875 -3.796875 L 5.125 0 L 0.1875 0 L 7.5625 -19.375 L 12.625 -19.375 Z M 7.703125 -7.828125 L 12.453125 -7.828125 L 10.078125 -14.5625 Z M 7.703125 -7.828125 "/></g></g></g><g fill="#000000" fill-opacity="1"><g transform="translate(288.24862, 93.220888)"><g><path d="M 15.890625 -7.703125 L 15.890625 -19.375 L 20.546875 -19.375 L 20.546875 0 L 17.171875 0 L 6.921875 -11.625 L 6.921875 0 L 2.265625 0 L 2.265625 -19.375 L 5.625 -19.375 Z M 15.890625 -7.703125 "/></g></g></g><g fill="#ff7a57" fill-opacity="1"><g transform="translate(217.1883, 60.57194)"><g><path d="M 3 0.125 C 2.539062 0.125 2.132812 0.0390625 1.78125 -0.125 C 1.425781 -0.289062 1.144531 -0.515625 0.9375 -0.796875 C 0.738281 -1.085938 0.628906 -1.414062 0.609375 -1.78125 L 1.53125 -1.78125 C 1.550781 -1.46875 1.691406 -1.210938 1.953125 -1.015625 C 2.222656 -0.828125 2.578125 -0.734375 3.015625 -0.734375 C 3.378906 -0.734375 3.679688 -0.8125 3.921875 -0.96875 C 4.171875 -1.125 4.296875 -1.34375 4.296875 -1.625 C 4.296875 -1.851562 4.226562 -2.035156 4.09375 -2.171875 C 3.96875 -2.304688 3.804688 -2.40625 3.609375 -2.46875 C 3.421875 -2.53125 3.148438 -2.601562 2.796875 -2.6875 C 2.359375 -2.78125 2.003906 -2.878906 1.734375 -2.984375 C 1.472656 -3.085938 1.25 -3.253906 1.0625 -3.484375 C 0.875 -3.710938 0.78125 -4.023438 0.78125 -4.421875 C 0.78125 -4.734375 0.878906 -5.019531 1.078125 -5.28125 C 1.273438 -5.539062 1.539062 -5.75 1.875 -5.90625 C 2.207031 -6.0625 2.566406 -6.140625 2.953125 -6.140625 C 3.335938 -6.140625 3.691406 -6.054688 4.015625 -5.890625 C 4.335938 -5.722656 4.597656 -5.5 4.796875 -5.21875 C 4.992188 -4.945312 5.097656 -4.640625 5.109375 -4.296875 L 4.1875 -4.296875 C 4.164062 -4.566406 4.035156 -4.796875 3.796875 -4.984375 C 3.566406 -5.179688 3.269531 -5.28125 2.90625 -5.28125 C 2.582031 -5.28125 2.304688 -5.203125 2.078125 -5.046875 C 1.847656 -4.890625 1.734375 -4.679688 1.734375 -4.421875 C 1.734375 -4.222656 1.796875 -4.0625 1.921875 -3.9375 C 2.054688 -3.8125 2.210938 -3.71875 2.390625 -3.65625 C 2.578125 -3.59375 2.835938 -3.519531 3.171875 -3.4375 C 3.617188 -3.332031 3.976562 -3.222656 4.25 -3.109375 C 4.519531 -3.003906 4.753906 -2.832031 4.953125 -2.59375 C 5.148438 -2.363281 5.25 -2.039062 5.25 -1.625 C 5.25 -1.101562 5.03125 -0.679688 4.59375 -0.359375 C 4.164062 -0.0351562 3.632812 0.125 3 0.125 Z M 3 0.125 "/></g></g></g><g fill="#ff7a57" fill-opacity="1"><g transform="translate(222.336313, 60.57194)"><g><path d="M 3.625 0.125 C 3.050781 0.125 2.523438 -0.0078125 2.046875 -0.28125 C 1.578125 -0.5625 1.195312 -0.941406 0.90625 -1.421875 C 0.625 -1.898438 0.484375 -2.425781 0.484375 -3 C 0.484375 -3.582031 0.625 -4.113281 0.90625 -4.59375 C 1.195312 -5.070312 1.578125 -5.445312 2.046875 -5.71875 C 2.523438 -6 3.050781 -6.140625 3.625 -6.140625 C 4.195312 -6.140625 4.722656 -6 5.203125 -5.71875 C 5.679688 -5.445312 6.0625 -5.070312 6.34375 -4.59375 C 6.625 -4.113281 6.765625 -3.582031 6.765625 -3 C 6.765625 -2.425781 6.625 -1.898438 6.34375 -1.421875 C 6.0625 -0.941406 5.679688 -0.5625 5.203125 -0.28125 C 4.722656 -0.0078125 4.195312 0.125 3.625 0.125 Z M 3.625 -0.734375 C 4.03125 -0.734375 4.394531 -0.832031 4.71875 -1.03125 C 5.050781 -1.238281 5.316406 -1.515625 5.515625 -1.859375 C 5.710938 -2.203125 5.8125 -2.582031 5.8125 -3 C 5.8125 -3.425781 5.710938 -3.8125 5.515625 -4.15625 C 5.316406 -4.5 5.050781 -4.769531 4.71875 -4.96875 C 4.394531 -5.175781 4.03125 -5.28125 3.625 -5.28125 C 3.226562 -5.28125 2.863281 -5.175781 2.53125 -4.96875 C 2.195312 -4.769531 1.929688 -4.5 1.734375 -4.15625 C 1.546875 -3.8125 1.453125 -3.425781 1.453125 -3 C 1.453125 -2.582031 1.546875 -2.203125 1.734375 -1.859375 C 1.929688 -1.515625 2.195312 -1.238281 2.53125 -1.03125 C 2.863281 -0.832031 3.226562 -0.734375 3.625 -0.734375 Z M 3.625 -0.734375 "/></g></g></g><g fill="#ff7a57" fill-opacity="1"><g transform="translate(228.820435, 60.57194)"><g><path d="M 3.25 -7.96875 C 2.945312 -7.96875 2.707031 -7.878906 2.53125 -7.703125 C 2.351562 -7.535156 2.265625 -7.296875 2.265625 -6.984375 L 2.265625 -6.015625 L 3.796875 -6.015625 L 3.796875 -5.171875 L 2.265625 -5.171875 L 2.265625 0 L 1.34375 0 L 1.34375 -5.171875 L 0.375 -5.171875 L 0.375 -6.015625 L 1.34375 -6.015625 L 1.34375 -7.046875 C 1.34375 -7.578125 1.515625 -8.003906 1.859375 -8.328125 C 2.203125 -8.660156 2.644531 -8.828125 3.1875 -8.828125 L 3.796875 -8.828125 L 3.796875 -7.96875 Z M 3.25 -7.96875 "/></g></g></g><g fill="#ff7a57" fill-opacity="1"><g transform="translate(232.09299, 60.57194)"><g><path d="M 3.796875 -5.171875 L 2.265625 -5.171875 L 2.265625 -1.84375 C 2.265625 -1.539062 2.351562 -1.300781 2.53125 -1.125 C 2.707031 -0.945312 2.945312 -0.859375 3.25 -0.859375 L 3.796875 -0.859375 L 3.796875 0 L 3.1875 0 C 2.644531 0 2.203125 -0.164062 1.859375 -0.5 C 1.515625 -0.832031 1.34375 -1.257812 1.34375 -1.78125 L 1.34375 -5.171875 L 0.375 -5.171875 L 0.375 -6.015625 L 1.34375 -6.015625 L 1.34375 -7.609375 L 2.265625 -7.609375 L 2.265625 -6.015625 L 3.796875 -6.015625 Z M 3.796875 -5.171875 "/></g></g></g><g fill="#ff7a57" fill-opacity="1"><g transform="translate(235.6107, 60.57194)"><g><path d="M 7 -1.4375 L 8.734375 -6.015625 L 9.6875 -6.015625 L 7.296875 0 L 6.671875 0 L 4.890625 -4.46875 L 3.109375 0 L 2.515625 0 L 0.125 -6.015625 L 1.109375 -6.015625 L 2.828125 -1.46875 L 4.59375 -6.015625 L 5.21875 -6.015625 Z M 7 -1.4375 "/></g></g></g><g fill="#ff7a57" fill-opacity="1"><g transform="translate(244.644463, 60.57194)"><g><path d="M 5.78125 -6.015625 L 6.703125 -6.015625 L 6.703125 0 L 5.78125 0 L 5.78125 -0.921875 C 5.519531 -0.597656 5.195312 -0.34375 4.8125 -0.15625 C 4.4375 0.03125 4.019531 0.125 3.5625 0.125 C 3.019531 0.125 2.507812 -0.0078125 2.03125 -0.28125 C 1.5625 -0.5625 1.1875 -0.941406 0.90625 -1.421875 C 0.625 -1.898438 0.484375 -2.425781 0.484375 -3 C 0.484375 -3.582031 0.625 -4.113281 0.90625 -4.59375 C 1.1875 -5.070312 1.5625 -5.445312 2.03125 -5.71875 C 2.507812 -6 3.019531 -6.140625 3.5625 -6.140625 C 4.019531 -6.140625 4.4375 -6.039062 4.8125 -5.84375 C 5.195312 -5.65625 5.519531 -5.40625 5.78125 -5.09375 Z M 3.640625 -0.734375 C 4.046875 -0.734375 4.414062 -0.832031 4.75 -1.03125 C 5.082031 -1.238281 5.347656 -1.515625 5.546875 -1.859375 C 5.742188 -2.203125 5.84375 -2.582031 5.84375 -3 C 5.84375 -3.425781 5.742188 -3.8125 5.546875 -4.15625 C 5.347656 -4.5 5.082031 -4.769531 4.75 -4.96875 C 4.414062 -5.175781 4.046875 -5.28125 3.640625 -5.28125 C 3.242188 -5.28125 2.875 -5.175781 2.53125 -4.96875 C 2.195312 -4.769531 1.929688 -4.5 1.734375 -4.15625 C 1.546875 -3.8125 1.453125 -3.425781 1.453125 -3 C 1.453125 -2.582031 1.546875 -2.203125 1.734375 -1.859375 C 1.929688 -1.515625 2.195312 -1.238281 2.53125 -1.03125 C 2.875 -0.832031 3.242188 -0.734375 3.640625 -0.734375 Z M 3.640625 -0.734375 "/></g></g></g><g fill="#ff7a57" fill-opacity="1"><g transform="translate(251.484061, 60.57194)"><g><path d="M 4.234375 -6.078125 L 4.234375 -5.21875 L 3.625 -5.21875 C 3.289062 -5.21875 2.988281 -5.140625 2.71875 -4.984375 C 2.445312 -4.835938 2.234375 -4.628906 2.078125 -4.359375 C 1.921875 -4.085938 1.84375 -3.78125 1.84375 -3.4375 L 1.84375 0 L 0.921875 0 L 0.921875 -6.015625 L 1.84375 -6.015625 L 1.84375 -5.15625 C 2.082031 -5.457031 2.363281 -5.6875 2.6875 -5.84375 C 3.007812 -6 3.359375 -6.078125 3.734375 -6.078125 Z M 4.234375 -6.078125 "/></g></g></g><g fill="#ff7a57" fill-opacity="1"><g transform="translate(255.063066, 60.57194)"><g><path d="M 3.515625 -6.140625 C 4.054688 -6.140625 4.550781 -6.015625 5 -5.765625 C 5.457031 -5.515625 5.816406 -5.160156 6.078125 -4.703125 C 6.335938 -4.242188 6.46875 -3.726562 6.46875 -3.15625 C 6.46875 -2.957031 6.460938 -2.804688 6.453125 -2.703125 L 1.453125 -2.703125 C 1.515625 -2.097656 1.726562 -1.617188 2.09375 -1.265625 C 2.457031 -0.910156 2.929688 -0.734375 3.515625 -0.734375 C 4.359375 -0.734375 4.96875 -1.082031 5.34375 -1.78125 L 6.328125 -1.78125 C 6.085938 -1.164062 5.722656 -0.691406 5.234375 -0.359375 C 4.753906 -0.0351562 4.179688 0.125 3.515625 0.125 C 2.941406 0.125 2.425781 -0.0078125 1.96875 -0.28125 C 1.507812 -0.5625 1.144531 -0.9375 0.875 -1.40625 C 0.613281 -1.882812 0.484375 -2.414062 0.484375 -3 C 0.484375 -3.59375 0.613281 -4.125 0.875 -4.59375 C 1.144531 -5.070312 1.507812 -5.445312 1.96875 -5.71875 C 2.425781 -6 2.941406 -6.140625 3.515625 -6.140625 Z M 3.515625 -5.28125 C 2.972656 -5.28125 2.519531 -5.125 2.15625 -4.8125 C 1.800781 -4.5 1.582031 -4.070312 1.5 -3.53125 L 5.5 -3.53125 C 5.445312 -4.050781 5.234375 -4.472656 4.859375 -4.796875 C 4.492188 -5.117188 4.046875 -5.28125 3.515625 -5.28125 Z M 3.515625 -5.28125 "/></g></g></g><g fill="#ff7a57" fill-opacity="1"><g transform="translate(261.191712, 60.57194)"><g/></g></g><g fill="#ff7a57" fill-opacity="1"><g transform="translate(263.851379, 60.57194)"><g><path d="M 3.515625 -6.140625 C 4.054688 -6.140625 4.550781 -6.015625 5 -5.765625 C 5.457031 -5.515625 5.816406 -5.160156 6.078125 -4.703125 C 6.335938 -4.242188 6.46875 -3.726562 6.46875 -3.15625 C 6.46875 -2.957031 6.460938 -2.804688 6.453125 -2.703125 L 1.453125 -2.703125 C 1.515625 -2.097656 1.726562 -1.617188 2.09375 -1.265625 C 2.457031 -0.910156 2.929688 -0.734375 3.515625 -0.734375 C 4.359375 -0.734375 4.96875 -1.082031 5.34375 -1.78125 L 6.328125 -1.78125 C 6.085938 -1.164062 5.722656 -0.691406 5.234375 -0.359375 C 4.753906 -0.0351562 4.179688 0.125 3.515625 0.125 C 2.941406 0.125 2.425781 -0.0078125 1.96875 -0.28125 C 1.507812 -0.5625 1.144531 -0.9375 0.875 -1.40625 C 0.613281 -1.882812 0.484375 -2.414062 0.484375 -3 C 0.484375 -3.59375 0.613281 -4.125 0.875 -4.59375 C 1.144531 -5.070312 1.507812 -5.445312 1.96875 -5.71875 C 2.425781 -6 2.941406 -6.140625 3.515625 -6.140625 Z M 3.515625 -5.28125 C 2.972656 -5.28125 2.519531 -5.125 2.15625 -4.8125 C 1.800781 -4.5 1.582031 -4.070312 1.5 -3.53125 L 5.5 -3.53125 C 5.445312 -4.050781 5.234375 -4.472656 4.859375 -4.796875 C 4.492188 -5.117188 4.046875 -5.28125 3.515625 -5.28125 Z M 3.515625 -5.28125 "/></g></g></g><g fill="#ff7a57" fill-opacity="1"><g transform="translate(269.980024, 60.57194)"><g><path d="M 3.734375 -6.140625 C 4.222656 -6.140625 4.648438 -6.019531 5.015625 -5.78125 C 5.390625 -5.550781 5.675781 -5.234375 5.875 -4.828125 C 6.082031 -4.429688 6.1875 -3.988281 6.1875 -3.5 L 6.1875 0 L 5.28125 0 L 5.28125 -3.5 C 5.28125 -4.03125 5.128906 -4.457031 4.828125 -4.78125 C 4.535156 -5.113281 4.132812 -5.28125 3.625 -5.28125 C 3.289062 -5.28125 2.988281 -5.203125 2.71875 -5.046875 C 2.445312 -4.898438 2.234375 -4.691406 2.078125 -4.421875 C 1.921875 -4.148438 1.84375 -3.84375 1.84375 -3.5 L 1.84375 0 L 0.921875 0 L 0.921875 -6.015625 L 1.84375 -6.015625 L 1.84375 -5.21875 C 2.082031 -5.519531 2.363281 -5.75 2.6875 -5.90625 C 3.007812 -6.0625 3.359375 -6.140625 3.734375 -6.140625 Z M 3.734375 -6.140625 "/></g></g></g><g fill="#ff7a57" fill-opacity="1"><g transform="translate(276.255763, 60.57194)"><g><path d="M 5.65625 -6.015625 L 6.578125 -6.015625 L 6.578125 -0.375 C 6.578125 0.195312 6.445312 0.707031 6.1875 1.15625 C 5.9375 1.601562 5.582031 1.953125 5.125 2.203125 C 4.675781 2.453125 4.15625 2.578125 3.5625 2.578125 C 2.863281 2.578125 2.253906 2.390625 1.734375 2.015625 C 1.222656 1.640625 0.875 1.128906 0.6875 0.484375 L 1.609375 0.484375 C 1.753906 0.867188 2 1.171875 2.34375 1.390625 C 2.695312 1.609375 3.101562 1.71875 3.5625 1.71875 C 4.207031 1.71875 4.71875 1.523438 5.09375 1.140625 C 5.46875 0.753906 5.65625 0.25 5.65625 -0.375 L 5.65625 -1.15625 C 5.394531 -0.832031 5.082031 -0.578125 4.71875 -0.390625 C 4.351562 -0.210938 3.953125 -0.125 3.515625 -0.125 C 2.953125 -0.125 2.441406 -0.25 1.984375 -0.5 C 1.523438 -0.757812 1.160156 -1.113281 0.890625 -1.5625 C 0.617188 -2.019531 0.484375 -2.539062 0.484375 -3.125 C 0.484375 -3.707031 0.617188 -4.226562 0.890625 -4.6875 C 1.160156 -5.144531 1.523438 -5.5 1.984375 -5.75 C 2.441406 -6.007812 2.953125 -6.140625 3.515625 -6.140625 C 3.953125 -6.140625 4.351562 -6.046875 4.71875 -5.859375 C 5.082031 -5.671875 5.394531 -5.421875 5.65625 -5.109375 Z M 3.578125 -0.984375 C 3.984375 -0.984375 4.347656 -1.078125 4.671875 -1.265625 C 4.992188 -1.453125 5.25 -1.707031 5.4375 -2.03125 C 5.625 -2.363281 5.71875 -2.726562 5.71875 -3.125 C 5.71875 -3.53125 5.625 -3.894531 5.4375 -4.21875 C 5.25 -4.539062 4.992188 -4.796875 4.671875 -4.984375 C 4.347656 -5.179688 3.984375 -5.28125 3.578125 -5.28125 C 3.179688 -5.28125 2.816406 -5.179688 2.484375 -4.984375 C 2.160156 -4.796875 1.90625 -4.539062 1.71875 -4.21875 C 1.539062 -3.894531 1.453125 -3.53125 1.453125 -3.125 C 1.453125 -2.726562 1.539062 -2.363281 1.71875 -2.03125 C 1.90625 -1.707031 2.160156 -1.453125 2.484375 -1.265625 C 2.816406 -1.078125 3.179688 -0.984375 3.578125 -0.984375 Z M 3.578125 -0.984375 "/></g></g></g><g fill="#ff7a57" fill-opacity="1"><g transform="translate(282.972781, 60.57194)"><g><path d="M 1.84375 0 L 0.921875 0 L 0.921875 -6.015625 L 1.84375 -6.015625 Z M 1.90625 -7.15625 L 0.84375 -7.15625 L 0.84375 -8.296875 L 1.90625 -8.296875 Z M 1.90625 -7.15625 "/></g></g></g><g fill="#ff7a57" fill-opacity="1"><g transform="translate(284.958262, 60.57194)"><g><path d="M 3.734375 -6.140625 C 4.222656 -6.140625 4.648438 -6.019531 5.015625 -5.78125 C 5.390625 -5.550781 5.675781 -5.234375 5.875 -4.828125 C 6.082031 -4.429688 6.1875 -3.988281 6.1875 -3.5 L 6.1875 0 L 5.28125 0 L 5.28125 -3.5 C 5.28125 -4.03125 5.128906 -4.457031 4.828125 -4.78125 C 4.535156 -5.113281 4.132812 -5.28125 3.625 -5.28125 C 3.289062 -5.28125 2.988281 -5.203125 2.71875 -5.046875 C 2.445312 -4.898438 2.234375 -4.691406 2.078125 -4.421875 C 1.921875 -4.148438 1.84375 -3.84375 1.84375 -3.5 L 1.84375 0 L 0.921875 0 L 0.921875 -6.015625 L 1.84375 -6.015625 L 1.84375 -5.21875 C 2.082031 -5.519531 2.363281 -5.75 2.6875 -5.90625 C 3.007812 -6.0625 3.359375 -6.140625 3.734375 -6.140625 Z M 3.734375 -6.140625 "/></g></g></g><g fill="#ff7a57" fill-opacity="1"><g transform="translate(291.233996, 60.57194)"><g><path d="M 3.515625 -6.140625 C 4.054688 -6.140625 4.550781 -6.015625 5 -5.765625 C 5.457031 -5.515625 5.816406 -5.160156 6.078125 -4.703125 C 6.335938 -4.242188 6.46875 -3.726562 6.46875 -3.15625 C 6.46875 -2.957031 6.460938 -2.804688 6.453125 -2.703125 L 1.453125 -2.703125 C 1.515625 -2.097656 1.726562 -1.617188 2.09375 -1.265625 C 2.457031 -0.910156 2.929688 -0.734375 3.515625 -0.734375 C 4.359375 -0.734375 4.96875 -1.082031 5.34375 -1.78125 L 6.328125 -1.78125 C 6.085938 -1.164062 5.722656 -0.691406 5.234375 -0.359375 C 4.753906 -0.0351562 4.179688 0.125 3.515625 0.125 C 2.941406 0.125 2.425781 -0.0078125 1.96875 -0.28125 C 1.507812 -0.5625 1.144531 -0.9375 0.875 -1.40625 C 0.613281 -1.882812 0.484375 -2.414062 0.484375 -3 C 0.484375 -3.59375 0.613281 -4.125 0.875 -4.59375 C 1.144531 -5.070312 1.507812 -5.445312 1.96875 -5.71875 C 2.425781 -6 2.941406 -6.140625 3.515625 -6.140625 Z M 3.515625 -5.28125 C 2.972656 -5.28125 2.519531 -5.125 2.15625 -4.8125 C 1.800781 -4.5 1.582031 -4.070312 1.5 -3.53125 L 5.5 -3.53125 C 5.445312 -4.050781 5.234375 -4.472656 4.859375 -4.796875 C 4.492188 -5.117188 4.046875 -5.28125 3.515625 -5.28125 Z M 3.515625 -5.28125 "/></g></g></g><g fill="#ff7a57" fill-opacity="1"><g transform="translate(297.362639, 60.57194)"><g><path d="M 3.515625 -6.140625 C 4.054688 -6.140625 4.550781 -6.015625 5 -5.765625 C 5.457031 -5.515625 5.816406 -5.160156 6.078125 -4.703125 C 6.335938 -4.242188 6.46875 -3.726562 6.46875 -3.15625 C 6.46875 -2.957031 6.460938 -2.804688 6.453125 -2.703125 L 1.453125 -2.703125 C 1.515625 -2.097656 1.726562 -1.617188 2.09375 -1.265625 C 2.457031 -0.910156 2.929688 -0.734375 3.515625 -0.734375 C 4.359375 -0.734375 4.96875 -1.082031 5.34375 -1.78125 L 6.328125 -1.78125 C 6.085938 -1.164062 5.722656 -0.691406 5.234375 -0.359375 C 4.753906 -0.0351562 4.179688 0.125 3.515625 0.125 C 2.941406 0.125 2.425781 -0.0078125 1.96875 -0.28125 C 1.507812 -0.5625 1.144531 -0.9375 0.875 -1.40625 C 0.613281 -1.882812 0.484375 -2.414062 0.484375 -3 C 0.484375 -3.59375 0.613281 -4.125 0.875 -4.59375 C 1.144531 -5.070312 1.507812 -5.445312 1.96875 -5.71875 C 2.425781 -6 2.941406 -6.140625 3.515625 -6.140625 Z M 3.515625 -5.28125 C 2.972656 -5.28125 2.519531 -5.125 2.15625 -4.8125 C 1.800781 -4.5 1.582031 -4.070312 1.5 -3.53125 L 5.5 -3.53125 C 5.445312 -4.050781 5.234375 -4.472656 4.859375 -4.796875 C 4.492188 -5.117188 4.046875 -5.28125 3.515625 -5.28125 Z M 3.515625 -5.28125 "/></g></g></g><g fill="#ff7a57" fill-opacity="1"><g transform="translate(303.491281, 60.57194)"><g><path d="M 4.234375 -6.078125 L 4.234375 -5.21875 L 3.625 -5.21875 C 3.289062 -5.21875 2.988281 -5.140625 2.71875 -4.984375 C 2.445312 -4.835938 2.234375 -4.628906 2.078125 -4.359375 C 1.921875 -4.085938 1.84375 -3.78125 1.84375 -3.4375 L 1.84375 0 L 0.921875 0 L 0.921875 -6.015625 L 1.84375 -6.015625 L 1.84375 -5.15625 C 2.082031 -5.457031 2.363281 -5.6875 2.6875 -5.84375 C 3.007812 -6 3.359375 -6.078125 3.734375 -6.078125 Z M 4.234375 -6.078125 "/></g></g></g></svg>